<?xml version="1.0" standalone="no"?>
<!DOCTYPE svg PUBLIC "-//W3C//DTD SVG 20010904//EN"
 "http://www.w3.org/TR/2001/REC-SVG-20010904/DTD/svg10.dtd">
<svg version="1.0" xmlns="http://www.w3.org/2000/svg"
 width="249.000000pt" height="203.000000pt" viewBox="0 0 249.000000 203.000000"
 preserveAspectRatio="xMidYMid meet">
<metadata>
Created by potrace 1.16, written by Peter Selinger 2001-2019
</metadata>
<g transform="translate(0.000000,203.000000) scale(0.100000,-0.100000)"
fill="#000000" stroke="none">
<path d="M2075 1335 c-33 -7 -103 -29 -155 -50 -224 -87 -360 -122 -360 -94 0
9 -3 10 -10 3 -15 -15 9 -114 27 -114 8 0 11 5 8 10 -12 19 51 32 198 41 185
11 318 38 412 83 101 47 119 88 54 121 -34 18 -93 18 -174 0z"/>
<path d="M910 1045 c-316 -74 -577 -134 -579 -134 -3 -1 5 -10 17 -21 12 -12
22 -27 22 -35 0 -40 132 -135 188 -135 9 0 197 41 417 91 395 91 400 92 438
128 52 49 87 119 87 176 0 25 5 45 10 45 6 0 10 5 10 10 0 6 -8 10 -17 9 -10
-1 -277 -61 -593 -134z"/>
</g>
</svg>
