<?xml version="1.0" standalone="no"?>
<!DOCTYPE svg PUBLIC "-//W3C//DTD SVG 20010904//EN"
 "http://www.w3.org/TR/2001/REC-SVG-20010904/DTD/svg10.dtd">
<svg version="1.0" xmlns="http://www.w3.org/2000/svg"
 width="612.000000pt" height="612.000000pt" viewBox="0 0 612.000000 612.000000"
 preserveAspectRatio="xMidYMid meet">
<metadata>
Created by potrace 1.16, written by Peter Selinger 2001-2019
</metadata>
<g transform="translate(0.000000,612.000000) scale(0.100000,-0.100000)"
fill="#000000" stroke="none">
<path d="M2622 4353 c-13 -3 -45 -26 -70 -51 l-47 -47 5 -60 c7 -73 19 -97 68
-130 97 -66 237 -1 249 116 11 111 -88 194 -205 172z"/>
<path d="M3183 4256 c-24 -8 -57 -23 -76 -33 -24 -14 -37 -17 -48 -10 -34 21
-73 -19 -51 -53 8 -14 6 -27 -9 -58 -41 -83 -37 -155 12 -215 36 -43 46 -44
24 -1 -45 86 18 209 125 243 19 6 75 15 124 20 55 7 101 18 122 31 29 16 47
19 112 15 l77 -4 -64 9 c-42 6 -77 18 -104 37 -35 24 -51 28 -121 30 -48 2
-98 -3 -123 -11z"/>
<path d="M3514 4040 c-12 -4 -31 -21 -43 -37 -14 -17 -44 -35 -74 -45 -65 -22
-65 -22 -69 0 -3 13 -8 9 -21 -16 -10 -18 -16 -36 -13 -40 3 -5 24 -9 48 -10
28 -2 38 1 29 7 -16 10 -7 17 39 24 31 6 40 2 84 -38 27 -25 53 -45 58 -45 5
0 -1 18 -12 41 -12 23 -20 42 -18 44 2 2 25 -1 51 -7 41 -8 50 -15 67 -49 17
-31 87 -95 96 -86 2 1 -1 20 -6 42 -5 22 -7 41 -6 43 2 1 17 -21 34 -50 17
-29 40 -64 51 -78 l21 -25 0 35 0 35 23 -39 c14 -25 41 -49 76 -69 l54 -31 -6
43 c-7 54 -47 115 -86 132 -41 18 -39 29 4 22 19 -3 35 -3 35 0 0 14 -105 67
-147 75 l-48 9 28 13 c33 16 34 23 5 37 -45 22 -60 23 -96 6 -24 -10 -58 -15
-95 -14 -47 2 -62 -1 -74 -16 -10 -12 -10 -9 2 12 10 17 26 39 36 51 31 33 20
43 -27 24z"/>
<path d="M1892 3726 c-22 -47 -22 -49 23 -58 6 -1 15 -7 21 -12 17 -16 -12
-125 -40 -156 -39 -41 -58 -89 -62 -154 l-4 -61 13 56 c8 30 17 64 21 75 8 19
8 19 15 -1 4 -10 1 -45 -7 -77 -13 -54 -13 -58 7 -87 33 -46 37 -85 12 -127
l-22 -37 27 -40 c14 -22 38 -51 53 -64 41 -37 141 -85 167 -80 13 2 21 0 18
-5 -8 -13 5 -46 22 -52 22 -9 51 10 58 37 3 14 18 30 35 37 26 10 83 60 69 60
-3 0 -22 -7 -41 -15 -50 -21 -90 -19 -140 6 -75 38 -99 61 -125 118 -22 48
-26 75 -32 196 -5 117 -10 147 -28 182 l-22 43 19 68 c10 38 29 88 41 111 12
24 20 44 18 45 -16 9 -80 36 -86 36 -5 0 -18 -20 -30 -44z"/>
<path d="M5378 3734 c-107 -25 -197 -82 -304 -190 -96 -97 -175 -201 -335
-438 -149 -222 -206 -290 -288 -345 -91 -59 -121 -70 -172 -60 -209 40 -748
-55 -1342 -237 -128 -40 -150 -44 -160 -31 -10 13 -16 13 -45 0 -22 -9 -32
-19 -28 -28 5 -15 -45 -37 -154 -69 -41 -12 -51 -12 -37 -2 11 9 17 27 17 55
0 46 -1 46 -38 27 -40 -21 -73 -60 -82 -98 l-8 -33 -7 33 c-4 17 -11 32 -14
32 -4 0 -15 -22 -24 -48 l-17 -48 -118 -49 c-162 -67 -390 -182 -496 -249
l-89 -56 -68 55 c-38 31 -71 66 -73 78 -3 12 -7 39 -10 60 -6 46 -37 91 -75
108 -17 8 -32 25 -38 43 -5 17 -9 23 -7 14 1 -10 -2 -21 -7 -24 -18 -11 -10
-52 12 -57 13 -4 18 -10 14 -17 -6 -9 -10 -9 -16 1 -6 9 -7 1 -4 -21 6 -35 47
-114 65 -125 18 -11 10 15 -10 35 -11 11 -15 20 -9 20 7 0 9 10 4 28 -4 15 -9
35 -11 46 -2 10 -8 24 -14 31 -8 10 -8 15 1 20 6 4 26 -7 46 -27 28 -28 36
-46 40 -84 5 -46 4 -48 -10 -29 -8 11 -18 17 -22 13 -10 -10 93 -109 165 -158
89 -59 140 -100 140 -111 0 -13 -84 -11 -117 3 -26 12 -92 62 -153 116 -13 12
-28 22 -32 22 -9 0 -102 118 -121 155 -9 17 -16 26 -17 20 0 -18 60 -115 72
-115 6 0 8 -3 5 -7 -4 -3 2 -17 14 -29 l21 -22 -29 -17 c-15 -9 -19 -13 -8
-10 48 17 57 17 78 -2 12 -11 41 -33 65 -48 42 -28 43 -28 24 -49 -55 -60 -55
-102 1 -159 23 -24 65 -71 93 -105 353 -422 1080 -552 1715 -307 487 188 845
531 978 939 37 113 51 189 51 282 l0 72 68 37 c133 73 229 160 609 545 153
155 210 206 280 250 172 107 297 210 274 224 -6 4 -11 2 -11 -4 0 -12 -24 -39
-37 -43 -4 -1 -7 -5 -6 -8 1 -4 -9 -6 -22 -5 -14 0 -25 6 -25 13 0 6 -8 9 -19
6 -10 -3 -27 0 -38 5 -14 8 -24 5 -42 -9 -28 -23 -49 -26 -27 -4 26 27 165 93
209 100 66 11 72 18 45 48 -15 17 -44 32 -83 42 -71 18 -111 18 -187 -1z
m-2027 -1460 c63 -32 96 -104 69 -153 -15 -29 -64 -45 -91 -31 -19 11 -24 9
-39 -10 -19 -25 -39 -20 -74 19 -18 20 -18 22 -2 40 14 15 15 24 7 40 -24 44
-6 92 40 110 26 10 48 6 90 -15z m-960 -406 c1 -13 0 -31 -1 -41 -2 -27 19
-84 37 -99 15 -12 15 -11 3 12 -16 28 -30 130 -19 130 24 0 40 -17 49 -50 14
-53 63 -104 93 -97 12 3 40 8 62 11 31 4 28 2 -15 -9 -30 -8 -71 -13 -90 -10
-27 5 -32 3 -20 -5 13 -10 13 -11 0 -7 -8 2 -24 1 -36 -4 -25 -9 -32 -4 -68
43 -16 21 -25 42 -20 49 4 7 3 9 -4 5 -15 -9 -25 49 -12 73 14 28 40 27 41 -1z"/>
<path d="M1550 3510 c-15 -12 -18 -18 -7 -14 21 8 22 0 1 -36 -14 -23 -26 -29
-73 -34 -78 -9 -95 -22 -40 -31 23 -4 50 -14 58 -23 15 -14 14 -15 0 -10 -11
4 -25 -3 -40 -18 -17 -18 -33 -24 -66 -24 -33 0 -50 -6 -75 -30 l-33 -29 30
-1 c50 -1 62 -16 18 -23 -21 -4 -54 -17 -73 -29 l-35 -22 30 -6 c27 -5 28 -7
9 -13 -31 -11 -63 -49 -70 -85 -6 -28 -4 -32 15 -32 43 0 90 28 116 70 14 22
30 38 35 35 6 -3 10 -8 10 -11 0 -3 -5 -2 -10 1 -13 8 -23 -17 -18 -47 3 -20
7 -17 36 26 18 28 32 58 32 68 0 27 17 22 24 -7 8 -32 21 -32 42 0 12 18 14
35 9 61 -5 29 -1 44 21 77 l27 42 21 -45 20 -45 4 37 c2 20 -2 46 -8 58 -15
29 22 115 46 106 13 -5 15 -2 10 16 -3 13 -6 26 -6 31 0 14 -35 6 -60 -13z"/>
<path d="M2233 3338 c-45 -32 -63 -68 -63 -126 0 -43 5 -55 38 -92 34 -39 43
-43 92 -47 68 -6 115 21 145 82 13 27 33 47 57 58 l37 18 -21 45 c-21 41 -38
57 -38 34 0 -5 -6 -10 -14 -10 -20 0 -27 -13 -14 -30 8 -12 9 -12 4 3 -3 9 -1
17 3 17 5 0 16 2 23 5 17 7 40 -38 32 -60 -7 -18 -16 -19 -33 -2 -8 6 -12 8
-9 2 3 -5 -3 -19 -13 -29 -19 -19 -19 -19 -19 3 0 12 -4 20 -9 17 -4 -3 -14 7
-20 21 -11 23 -10 29 6 41 17 13 16 15 -17 43 -45 38 -119 41 -167 7z"/>
<path d="M2755 3166 c-9 -14 -22 -59 -28 -101 -12 -73 -14 -77 -57 -111 -25
-20 -51 -46 -57 -59 -11 -21 -16 -22 -50 -14 -61 14 -63 13 -63 -36 0 -43 1
-45 30 -45 17 0 30 -2 30 -5 0 -15 -72 -146 -94 -172 -14 -17 -26 -38 -26 -48
0 -9 -14 -30 -30 -47 -28 -28 -35 -30 -73 -23 -23 4 -70 9 -105 10 -70 3 -135
35 -171 82 -11 16 -21 23 -21 17 0 -28 33 -86 71 -122 25 -24 36 -42 30 -46
-16 -10 -13 -17 15 -50 l25 -28 24 22 c14 13 22 26 20 31 -3 4 0 11 6 15 8 4
9 3 5 -4 -5 -9 14 -12 69 -12 104 0 206 35 272 93 12 10 26 16 32 13 7 -5 7 3
0 23 -14 39 3 93 37 120 17 14 29 39 40 88 20 88 32 116 44 108 19 -11 -18
-148 -44 -168 -7 -5 -3 -7 9 -5 34 5 67 117 59 198 -12 123 -9 194 10 243 21
54 16 71 -9 33z"/>
<path d="M1402 2799 c-59 -29 -85 -70 -90 -140 -8 -111 66 -185 177 -177 87 6
144 59 157 145 5 38 8 41 25 33 16 -9 22 -4 39 29 11 22 20 45 20 50 0 8 -29
23 -50 26 -3 0 -11 4 -19 9 -10 7 -19 3 -29 -12 l-14 -22 -19 24 c-44 56 -125
70 -197 35z"/>
</g>
</svg>
