<?xml version="1.0" standalone="no"?>
<!DOCTYPE svg PUBLIC "-//W3C//DTD SVG 20010904//EN"
 "http://www.w3.org/TR/2001/REC-SVG-20010904/DTD/svg10.dtd">
<svg version="1.0" xmlns="http://www.w3.org/2000/svg"
 width="612.000000pt" height="612.000000pt" viewBox="0 0 612.000000 612.000000"
 preserveAspectRatio="xMidYMid meet">
<metadata>
Created by potrace 1.16, written by Peter Selinger 2001-2019
</metadata>
<g transform="translate(0.000000,612.000000) scale(0.100000,-0.100000)"
fill="#000000" stroke="none">
<path d="M5008 4606 c-196 -70 -813 -409 -1048 -576 -103 -74 -149 -119 -200
-193 -42 -63 -171 -308 -168 -318 2 -5 24 5 50 21 56 35 100 38 144 11 78 -47
113 -141 77 -203 -20 -35 -20 -72 0 -65 36 11 99 169 133 331 18 85 55 171 92
209 65 68 395 252 867 484 122 60 186 97 199 116 22 30 36 124 25 156 -18 47
-85 58 -171 27z"/>
<path d="M2995 3534 c-22 -2 -96 -9 -164 -14 -256 -23 -611 -99 -893 -194
-468 -156 -855 -396 -953 -591 -24 -49 -30 -73 -30 -127 0 -59 3 -70 31 -105
99 -123 322 -183 684 -183 274 0 514 32 830 110 558 138 983 334 1206 555 86
84 117 133 134 210 34 153 -120 273 -414 319 -92 15 -357 27 -431 20z"/>
<path d="M3850 3163 c0 -34 -61 -123 -133 -196 -259 -261 -864 -517 -1472
-622 -232 -40 -340 -49 -575 -48 -183 1 -245 5 -332 22 -160 30 -298 91 -345
151 -27 33 -11 -5 24 -58 79 -121 272 -286 404 -347 30 -13 95 -34 144 -47 82
-20 114 -23 345 -23 199 0 280 4 370 18 465 74 870 217 1155 408 209 140 320
292 391 538 24 82 43 221 30 221 -3 0 -6 -8 -6 -17z"/>
</g>
</svg>
